STARTFONT 2.1
COMMENT Silicon Graphics FREE font
FONT -SGI-Rock-Medium-R-Normal--24-240-72-72-P-133-ISO8859-1
SIZE 24 72 72
FONTBOUNDINGBOX 18 24 1 -7
STARTPROPERTIES 22
_DEC_DEVICE_FONTNAMES "FM=Rock"
FONTNAME_REGISTRY ""
FOUNDRY "SGI"
FAMILY_NAME "Rock"
WEIGHT_NAME "Medium"
SLANT "R"
SETWIDTH_NAME "Normal"
ADD_STYLE_NAME ""
PIXEL_SIZE 24
POINT_SIZE 240
RESOLUTION_X 72
RESOLUTION_Y 72
SPACING "P"
AVERAGE_WIDTH 133
CHARSET_REGISTRY "ISO8859"
CHARSET_ENCODING "1"
CHARSET_COLLECTIONS "ASCII ISO8859-1"
FULL_NAME "Rock"
FONT_ASCENT 17
FONT_DESCENT 7
CAP_HEIGHT 18
X_HEIGHT 12
ENDPROPERTIES
CHARS 190
STARTCHAR space
ENCODING 32
SWIDTH 400 0
DWIDTH 10 0
BBX 1 1 0 0
BITMAP
00
ENDCHAR
STARTCHAR exclam
ENCODING 33
SWIDTH 258 0
DWIDTH 6 0
BBX 4 18 2 -1
BITMAP
e0
e0
e0
e0
e0
e0
e0
e0
e0
e0
e0
e0
e0
e0
00
e0
f0
70
ENDCHAR
STARTCHAR quotedbl
ENCODING 34
SWIDTH 455 0
DWIDTH 11 0
BBX 8 6 2 11
BITMAP
70
77
f7
ee
ee
0e
ENDCHAR
STARTCHAR numbersign
ENCODING 35
SWIDTH 539 0
DWIDTH 13 0
BBX 10 14 2 1
BITMAP
19c0
1dc0
1fc0
3fc0
ffc0
ffc0
ff80
3f80
ffc0
ffc0
ff00
7e00
ee00
0200
ENDCHAR
STARTCHAR dollar
ENCODING 36
SWIDTH 562 0
DWIDTH 13 0
BBX 11 20 2 -3
BITMAP
3800
3f00
3f00
3f00
7800
f000
e000
f800
7e00
3f80
0fc0
03e0
00e0
07c0
7fc0
ff00
fe00
ce00
0e00
0e00
ENDCHAR
STARTCHAR percent
ENCODING 37
SWIDTH 908 0
DWIDTH 22 0
BBX 17 18 2 -1
BITMAP
000200
000700
3e0f00
7e0e00
ff9e00
e39c00
e3bc00
fff800
7f7780
3eff80
00ff80
01dc80
03f880
03bd80
079f80
071f80
0e0f80
060000
ENDCHAR
STARTCHAR ampersand
ENCODING 38
SWIDTH 656 0
DWIDTH 16 0
BBX 13 17 2 -1
BITMAP
0e00
1e00
3c00
3800
3800
3800
3800
3c00
7e00
ff00
e7b0
e3f8
e1f0
f3f0
7ff8
3f38
1e00
ENDCHAR
STARTCHAR quoteright
ENCODING 39
SWIDTH 291 0
DWIDTH 7 0
BBX 4 6 2 11
BITMAP
70
70
70
e0
e0
e0
ENDCHAR
STARTCHAR parenleft
ENCODING 40
SWIDTH 420 0
DWIDTH 10 0
BBX 7 20 2 -3
BITMAP
1c
1c
38
38
70
70
f0
e0
e0
e0
e0
e0
f0
70
78
38
3c
1e
0e
04
ENDCHAR
STARTCHAR parenright
ENCODING 41
SWIDTH 416 0
DWIDTH 10 0
BBX 7 20 2 -3
BITMAP
70
78
38
3c
1c
1c
1e
0e
0e
0e
0e
0e
1e
1c
3c
38
78
f0
e0
40
ENDCHAR
STARTCHAR asterisk
ENCODING 42
SWIDTH 586 0
DWIDTH 14 0
BBX 11 11 2 2
BITMAP
0e00
0e00
ef80
ffc0
ff80
3f80
3fe0
7fe0
3ee0
0e00
0e00
ENDCHAR
STARTCHAR plus
ENCODING 43
SWIDTH 630 0
DWIDTH 15 0
BBX 12 11 2 2
BITMAP
0600
0700
0700
0700
c700
fff0
fff0
7ff0
0f00
0e00
0e00
ENDCHAR
STARTCHAR comma
ENCODING 44
SWIDTH 338 0
DWIDTH 8 0
BBX 5 8 2 -5
BITMAP
38
38
38
38
78
f0
e0
40
ENDCHAR
STARTCHAR minus
ENCODING 45
SWIDTH 608 0
DWIDTH 15 0
BBX 12 3 2 5
BITMAP
ffe0
fff0
fff0
ENDCHAR
STARTCHAR period
ENCODING 46
SWIDTH 237 0
DWIDTH 6 0
BBX 3 4 2 -1
BITMAP
e0
e0
e0
e0
ENDCHAR
STARTCHAR slash
ENCODING 47
SWIDTH 862 0
DWIDTH 21 0
BBX 17 20 2 -3
BITMAP
000380
000780
000f00
000e00
001e00
003c00
007800
00f000
00e000
01e000
03c000
078000
0f0000
0e0000
1e0000
3c0000
780000
f00000
e00000
400000
ENDCHAR
STARTCHAR zero
ENCODING 48
SWIDTH 657 0
DWIDTH 16 0
BBX 13 16 2 0
BITMAP
0f00
1fc0
3fe0
78f0
f078
e038
e038
e038
e038
e038
e078
f070
78f0
3fe0
3fc0
0f00
ENDCHAR
STARTCHAR one
ENCODING 49
SWIDTH 373 0
DWIDTH 9 0
BBX 6 17 2 -1
BITMAP
1c
3c
7c
7c
fc
fc
5c
1c
1c
1c
1c
1c
1c
1c
1c
1c
1c
ENDCHAR
STARTCHAR two
ENCODING 50
SWIDTH 568 0
DWIDTH 14 0
BBX 11 17 2 -1
BITMAP
6000
f000
fc00
3e00
0f00
0780
03c0
01c0
01c0
03c0
0780
0f80
3e00
ff00
ffe0
ffe0
ffe0
ENDCHAR
STARTCHAR three
ENCODING 51
SWIDTH 464 0
DWIDTH 11 0
BBX 8 18 2 -2
BITMAP
e0
f8
fe
1f
0f
07
0f
7f
7e
7c
7e
1f
07
0f
3e
fe
f8
e0
ENDCHAR
STARTCHAR four
ENCODING 52
SWIDTH 707 0
DWIDTH 17 0
BBX 14 17 2 -1
BITMAP
00f0
01f0
01f0
03f0
07f0
0f70
0e70
1e70
3c70
7870
77fc
fffc
7ffc
7870
0070
0070
0070
ENDCHAR
STARTCHAR five
ENCODING 53
SWIDTH 563 0
DWIDTH 14 0
BBX 11 18 2 -2
BITMAP
ffc0
ffe0
ffe0
ffc0
f000
fe00
ff00
0f80
0380
03c0
0380
0780
0f00
1e00
3c00
7c00
f000
6000
ENDCHAR
STARTCHAR six
ENCODING 54
SWIDTH 541 0
DWIDTH 13 0
BBX 10 19 2 -2
BITMAP
0600
0700
0f00
0e00
1c00
1c00
3c00
3e00
7f00
7780
f3c0
e1c0
e1c0
e1c0
e1c0
f7c0
7f80
3f00
1800
ENDCHAR
STARTCHAR seven
ENCODING 55
SWIDTH 554 0
DWIDTH 13 0
BBX 11 16 2 0
BITMAP
ffc0
ffe0
ffe0
01c0
01c0
0380
0380
0780
0700
0f00
0e00
1e00
1c00
3c00
3800
3800
ENDCHAR
STARTCHAR eight
ENCODING 56
SWIDTH 526 0
DWIDTH 13 0
BBX 10 16 2 0
BITMAP
1c00
3f00
7f00
f780
e380
e380
ff80
7f00
7f80
f7c0
e1c0
e1c0
e3c0
ff80
7f80
3e00
ENDCHAR
STARTCHAR nine
ENCODING 57
SWIDTH 518 0
DWIDTH 12 0
BBX 10 17 2 -1
BITMAP
3e00
7f80
ff80
e380
e1c0
e3c0
e380
f380
7b80
3f80
1f00
0e00
1e00
1c00
3c00
7800
3000
ENDCHAR
STARTCHAR colon
ENCODING 58
SWIDTH 243 0
DWIDTH 6 0
BBX 3 10 2 -1
BITMAP
e0
e0
e0
60
00
00
e0
e0
e0
e0
ENDCHAR
STARTCHAR semicolon
ENCODING 59
SWIDTH 338 0
DWIDTH 8 0
BBX 5 15 2 -5
BITMAP
38
38
38
18
00
00
00
38
38
38
38
78
f0
e0
40
ENDCHAR
STARTCHAR less
ENCODING 60
SWIDTH 494 0
DWIDTH 12 0
BBX 9 16 2 0
BITMAP
0400
0f00
0e00
1e00
3c00
3800
7000
f000
f000
7800
3c00
1e00
0f00
0780
0380
0100
ENDCHAR
STARTCHAR equal
ENCODING 61
SWIDTH 562 0
DWIDTH 13 0
BBX 11 7 2 4
BITMAP
ffe0
ffe0
ffe0
0000
ffc0
ffc0
ffc0
ENDCHAR
STARTCHAR greater
ENCODING 62
SWIDTH 476 0
DWIDTH 11 0
BBX 9 14 2 1
BITMAP
6000
f000
7800
3c00
1e00
0f00
0780
0f00
1e00
3c00
7800
f000
e000
4000
ENDCHAR
STARTCHAR question
ENCODING 63
SWIDTH 444 0
DWIDTH 11 0
BBX 8 18 2 -2
BITMAP
60
f8
fc
3e
0e
0f
07
0f
1e
1c
3c
78
10
00
70
70
70
10
ENDCHAR
STARTCHAR at
ENCODING 64
SWIDTH 763 0
DWIDTH 18 0
BBX 16 18 2 -1
BITMAP
0fc0
1fe0
3ff0
7878
7138
e7bc
efdc
efdc
fffc
fcf8
ff78
efb4
f70f
701e
7c3c
3ffc
1ff0
07e0
ENDCHAR
STARTCHAR A
ENCODING 65
SWIDTH 803 0
DWIDTH 19 0
BBX 16 17 2 -2
BITMAP
0380
03c0
03c0
07e0
07e0
0f70
0e70
1e38
1c78
1ffc
3ffc
3fde
780e
700f
f007
e007
6002
ENDCHAR
STARTCHAR B
ENCODING 66
SWIDTH 596 0
DWIDTH 14 0
BBX 11 17 2 -1
BITMAP
fe00
ff80
ffc0
e3e0
e0e0
e3e0
ffc0
ff80
ff80
ffc0
f3e0
f0e0
f0e0
f3e0
ffc0
ff80
fc00
ENDCHAR
STARTCHAR C
ENCODING 67
SWIDTH 598 0
DWIDTH 14 0
BBX 12 18 2 -2
BITMAP
00c0
07c0
0fc0
1f00
3c00
7800
7000
f000
e000
e000
e000
e000
f800
7c00
3fe0
0ff0
03f0
0060
ENDCHAR
STARTCHAR D
ENCODING 68
SWIDTH 635 0
DWIDTH 15 0
BBX 12 16 2 0
BITMAP
f800
fe00
ff80
efc0
e1e0
e0f0
e070
e070
e070
e070
e0f0
e3e0
efc0
ff80
fe00
7000
ENDCHAR
STARTCHAR E
ENCODING 69
SWIDTH 474 0
DWIDTH 11 0
BBX 8 17 2 -1
BITMAP
ff
ff
ff
e0
e0
e0
e0
fc
fc
fc
e0
e0
e0
fc
ff
ff
03
ENDCHAR
STARTCHAR F
ENCODING 70
SWIDTH 431 0
DWIDTH 10 0
BBX 7 15 2 0
BITMAP
fe
fe
fe
e0
e0
e0
fe
fe
fe
e0
e0
e0
e0
e0
e0
ENDCHAR
STARTCHAR G
ENCODING 71
SWIDTH 627 0
DWIDTH 15 0
BBX 12 16 2 0
BITMAP
0040
00e0
03e0
07c0
0f00
1e00
3c00
7800
f030
e070
e070
e070
f070
7ff0
3ff0
1ff0
ENDCHAR
STARTCHAR H
ENCODING 72
SWIDTH 729 0
DWIDTH 17 0
BBX 15 17 1 -1
BITMAP
f00e
f00e
700e
700e
700e
700e
7ffe
7ffe
7ffe
700e
700e
700e
700e
700e
700e
700e
7006
ENDCHAR
STARTCHAR I
ENCODING 73
SWIDTH 242 0
DWIDTH 6 0
BBX 3 17 2 -1
BITMAP
c0
e0
e0
e0
e0
e0
e0
e0
e0
e0
e0
e0
e0
e0
e0
e0
e0
ENDCHAR
STARTCHAR J
ENCODING 74
SWIDTH 380 0
DWIDTH 9 0
BBX 6 20 2 -4
BITMAP
1c
1c
1c
1c
1c
1c
1c
1c
1c
1c
1c
1c
1c
1c
38
38
70
f0
e0
60
ENDCHAR
STARTCHAR K
ENCODING 75
SWIDTH 620 0
DWIDTH 15 0
BBX 12 17 2 -1
BITMAP
e180
e3c0
e780
ef00
fe00
fc00
f800
f800
fc00
fe00
ef00
e780
e3c0
e1e0
e0f0
e0f0
e060
ENDCHAR
STARTCHAR L
ENCODING 76
SWIDTH 474 0
DWIDTH 11 0
BBX 9 15 2 0
BITMAP
e000
e000
e000
e000
e000
e000
e000
e000
e000
e000
e000
e000
ff80
ff80
7f80
ENDCHAR
STARTCHAR M
ENCODING 77
SWIDTH 906 0
DWIDTH 22 0
BBX 17 17 2 0
BITMAP
080000
0e3c00
1e3c00
1f7e00
1f7e00
3ffe00
3fef00
3be700
3bc700
7bc780
738380
700380
f00380
e00180
e00180
e00180
e00080
ENDCHAR
STARTCHAR N
ENCODING 78
SWIDTH 781 0
DWIDTH 19 0
BBX 16 18 2 -1
BITMAP
4000
e007
f007
f807
fc07
fe07
ef07
e787
e3c7
e1e7
e0f7
e0f7
e07f
e03f
f01f
700f
7007
6000
ENDCHAR
STARTCHAR O
ENCODING 79
SWIDTH 804 0
DWIDTH 19 0
BBX 17 16 2 0
BITMAP
03e000
0ff800
1ffc00
7e1e00
780e00
f00e00
e00700
e00700
e00780
e00780
f00780
780700
3c0f00
3ffe00
0ffc00
07f000
ENDCHAR
STARTCHAR P
ENCODING 80
SWIDTH 583 0
DWIDTH 14 0
BBX 12 16 1 0
BITMAP
7000
ff00
7fc0
7fe0
71f0
7070
70f0
71e0
77c0
7f80
7f00
7c00
7000
7000
7000
7000
ENDCHAR
STARTCHAR Q
ENCODING 81
SWIDTH 794 0
DWIDTH 19 0
BBX 16 18 2 -2
BITMAP
03e0
0ff8
1ffe
3e1e
780f
f007
e007
e007
e007
e007
e00f
700e
783e
3ffc
1ff8
0fff
01ff
001f
ENDCHAR
STARTCHAR R
ENCODING 82
SWIDTH 655 0
DWIDTH 16 0
BBX 13 18 2 -1
BITMAP
c000
fe00
ff80
ffc0
e1e0
e0e0
e0e0
e1e0
e7c0
ff80
ff00
ff00
ef80
e3c0
e1e0
e0f0
e078
e030
ENDCHAR
STARTCHAR S
ENCODING 83
SWIDTH 509 0
DWIDTH 12 0
BBX 10 18 1 -1
BITMAP
0300
0f00
1f00
3e00
7800
7000
f000
7c00
7f00
1f80
07c0
01c0
03c0
0780
3f00
7e00
7800
2000
ENDCHAR
STARTCHAR T
ENCODING 84
SWIDTH 674 0
DWIDTH 16 0
BBX 13 15 2 0
BITMAP
fff8
fff8
fff8
0700
0700
0700
0700
0700
0700
0700
0700
0700
0700
0700
0700
ENDCHAR
STARTCHAR U
ENCODING 85
SWIDTH 765 0
DWIDTH 18 0
BBX 16 16 2 0
BITMAP
e007
e007
e007
e007
e007
e007
e00f
e00e
700e
700e
700e
781c
3c3c
1ff8
1ff8
07e0
ENDCHAR
STARTCHAR V
ENCODING 86
SWIDTH 861 0
DWIDTH 21 0
BBX 17 17 2 -1
BITMAP
000180
e00180
f00380
700380
380780
380700
1c0f00
1e0e00
0e1e00
0f1c00
073c00
07b800
03f800
03f000
01f000
01e000
00c000
ENDCHAR
STARTCHAR W
ENCODING 87
SWIDTH 940 0
DWIDTH 23 0
BBX 18 17 1 -1
BITMAP
6001c0
e001c0
f001c0
7001c0
7001c0
7801c0
3801c0
3841c0
3c71c0
1cf380
1cfb80
0fff80
0fbf80
0f9f80
078f00
070600
040000
ENDCHAR
STARTCHAR X
ENCODING 88
SWIDTH 789 0
DWIDTH 19 0
BBX 16 18 2 -2
BITMAP
0002
6007
f00f
780e
3c1e
1e3c
0f78
07f0
03f0
01e0
03f0
07f8
073c
0f1e
1e0f
3c07
3806
1000
ENDCHAR
STARTCHAR Y
ENCODING 89
SWIDTH 753 0
DWIDTH 18 0
BBX 15 18 2 -1
BITMAP
4000
f00e
fc1e
7e3e
0f78
07f0
03e0
03e0
01c0
01c0
01c0
01c0
01c0
01c0
01c0
01c0
01c0
01c0
ENDCHAR
STARTCHAR Z
ENCODING 90
SWIDTH 625 0
DWIDTH 15 0
BBX 12 17 2 -1
BITMAP
ffe0
fff0
fff0
01e0
01c0
03c0
0380
0700
0f00
0e00
1c00
3c00
3800
7800
fff0
fff0
fff0
ENDCHAR
STARTCHAR bracketleft
ENCODING 91
SWIDTH 393 0
DWIDTH 9 0
BBX 7 20 2 -3
BITMAP
fc
f8
e0
e0
e0
e0
e0
e0
e0
e0
e0
e0
e0
e0
e0
70
70
7c
7e
7e
ENDCHAR
STARTCHAR backslash
ENCODING 92
SWIDTH 860 0
DWIDTH 21 0
BBX 17 20 2 -3
BITMAP
f00000
700000
380000
3c0000
1e0000
0f0000
070000
078000
03c000
01e000
00f000
007800
007800
003c00
001e00
000f00
000780
000380
000380
000180
ENDCHAR
STARTCHAR bracketright
ENCODING 93
SWIDTH 365 0
DWIDTH 9 0
BBX 6 20 2 -3
BITMAP
fc
fc
1c
1c
1c
1c
1c
1c
1c
1c
1c
1c
1c
1c
1c
1c
1c
fc
fc
fc
ENDCHAR
STARTCHAR asciicircum
ENCODING 94
SWIDTH 566 0
DWIDTH 14 0
BBX 11 8 2 7
BITMAP
0e00
1f00
1f00
3f80
7bc0
f1c0
e0e0
4080
ENDCHAR
STARTCHAR underscore
ENCODING 95
SWIDTH 812 0
DWIDTH 19 0
BBX 17 3 2 -1
BITMAP
ffff80
ffff80
ffff80
ENDCHAR
STARTCHAR quoteleft
ENCODING 96
SWIDTH 321 0
DWIDTH 8 0
BBX 5 5 2 12
BITMAP
e0
f0
70
78
30
ENDCHAR
STARTCHAR a
ENCODING 97
SWIDTH 561 0
DWIDTH 13 0
BBX 11 10 2 0
BITMAP
1f00
3f00
7f00
f700
e700
e700
f700
7fc0
7fe0
1ce0
ENDCHAR
STARTCHAR b
ENCODING 98
SWIDTH 575 0
DWIDTH 14 0
BBX 11 15 2 0
BITMAP
e000
e000
e000
e000
e000
fe00
ff80
ffc0
e3e0
e0e0
e0e0
e3e0
ffc0
ff80
fc00
ENDCHAR
STARTCHAR c
ENCODING 99
SWIDTH 474 0
DWIDTH 11 0
BBX 8 13 2 -1
BITMAP
02
0e
1e
3e
78
f0
e0
e0
f0
fc
3f
1f
03
ENDCHAR
STARTCHAR d
ENCODING 100
SWIDTH 536 0
DWIDTH 13 0
BBX 10 15 2 0
BITMAP
01c0
01c0
01c0
01c0
01c0
03c0
1fc0
3fc0
fdc0
f1c0
e1c0
fdc0
7fc0
1fc0
07c0
ENDCHAR
STARTCHAR e
ENCODING 101
SWIDTH 537 0
DWIDTH 13 0
BBX 10 10 2 0
BITMAP
1e00
3e00
7e00
fe00
ee00
ee00
f000
7fc0
3fc0
0fc0
ENDCHAR
STARTCHAR f
ENCODING 102
SWIDTH 484 0
DWIDTH 12 0
BBX 10 17 1 0
BITMAP
0180
03c0
0780
0700
0f00
1e00
7f80
ff80
ff80
1c00
1c00
1c00
1c00
1c00
1c00
1c00
0c00
ENDCHAR
STARTCHAR g
ENCODING 103
SWIDTH 527 0
DWIDTH 13 0
BBX 10 17 2 -7
BITMAP
0fc0
3fc0
7fc0
f9c0
e1c0
f1c0
7fc0
7fc0
1fc0
03c0
01c0
03c0
0780
0f00
1e00
1c00
1800
ENDCHAR
STARTCHAR h
ENCODING 104
SWIDTH 549 0
DWIDTH 13 0
BBX 10 15 2 0
BITMAP
e000
e000
e000
e000
e000
f000
fe00
ff00
ef80
e3c0
e3c0
e1c0
e1c0
e1c0
61c0
ENDCHAR
STARTCHAR i
ENCODING 105
SWIDTH 248 0
DWIDTH 6 0
BBX 3 13 2 0
BITMAP
e0
e0
e0
00
e0
e0
e0
e0
e0
e0
e0
e0
e0
ENDCHAR
STARTCHAR j
ENCODING 106
SWIDTH 316 0
DWIDTH 8 0
BBX 5 18 2 -5
BITMAP
70
70
70
00
00
38
38
38
38
38
38
38
38
38
70
f0
e0
e0
ENDCHAR
STARTCHAR k
ENCODING 107
SWIDTH 484 0
DWIDTH 12 0
BBX 8 15 2 0
BITMAP
e0
e0
e0
e2
e3
e7
ef
fe
fc
f8
fc
fe
ef
e7
e2
ENDCHAR
STARTCHAR l
ENCODING 108
SWIDTH 260 0
DWIDTH 6 0
BBX 3 15 2 0
BITMAP
e0
e0
e0
e0
e0
e0
e0
e0
e0
e0
e0
e0
e0
e0
e0
ENDCHAR
STARTCHAR m
ENCODING 109
SWIDTH 705 0
DWIDTH 17 0
BBX 14 11 2 0
BITMAP
6e00
fff0
fff8
fff8
f3bc
739c
739c
739c
739c
739c
719c
ENDCHAR
STARTCHAR n
ENCODING 110
SWIDTH 501 0
DWIDTH 12 0
BBX 9 11 2 0
BITMAP
0c00
fe00
ff00
ff00
f780
f380
7380
7380
7380
7380
6380
ENDCHAR
STARTCHAR o
ENCODING 111
SWIDTH 546 0
DWIDTH 13 0
BBX 10 11 2 0
BITMAP
0f00
3f80
7fc0
f9c0
e1c0
e1c0
e1c0
f3c0
7f80
3f00
1e00
ENDCHAR
STARTCHAR p
ENCODING 112
SWIDTH 574 0
DWIDTH 14 0
BBX 11 15 2 -5
BITMAP
fc00
ff80
ffc0
e7e0
e0e0
e1e0
e7c0
ff80
ff00
f800
e000
e000
e000
e000
e000
ENDCHAR
STARTCHAR q
ENCODING 113
SWIDTH 614 0
DWIDTH 15 0
BBX 12 16 2 -6
BITMAP
07f0
1ff0
3ff0
7c70
f070
e070
f870
fff0
3ff0
03f0
0070
0070
0070
0070
0070
0070
ENDCHAR
STARTCHAR r
ENCODING 114
SWIDTH 414 0
DWIDTH 10 0
BBX 7 11 2 0
BITMAP
06
ee
fe
fc
f8
f0
e0
e0
e0
e0
e0
ENDCHAR
STARTCHAR s
ENCODING 115
SWIDTH 390 0
DWIDTH 9 0
BBX 7 13 2 -1
BITMAP
18
38
78
f0
e0
f0
f8
3c
1e
1e
7c
78
30
ENDCHAR
STARTCHAR t
ENCODING 116
SWIDTH 497 0
DWIDTH 12 0
BBX 9 16 2 -3
BITMAP
1c00
1c00
1c00
ff80
ff80
ff80
1c00
1c00
1c00
1c00
1c00
1e00
0e00
0f00
0700
0600
ENDCHAR
STARTCHAR u
ENCODING 117
SWIDTH 563 0
DWIDTH 14 0
BBX 11 11 2 0
BITMAP
c0e0
e1e0
e1c0
e1c0
e1c0
71c0
7380
7b80
3f80
1f00
0e00
ENDCHAR
STARTCHAR v
ENCODING 118
SWIDTH 553 0
DWIDTH 13 0
BBX 11 11 2 0
BITMAP
60c0
e1e0
f1c0
7bc0
3b80
3f80
1f80
1f00
0f00
0f00
0700
ENDCHAR
STARTCHAR w
ENCODING 119
SWIDTH 782 0
DWIDTH 19 0
BBX 16 11 2 0
BITMAP
4006
e38f
f3ce
77ce
7ffe
3ffc
3ffc
1e78
1e78
0e78
0800
ENDCHAR
STARTCHAR x
ENCODING 120
SWIDTH 615 0
DWIDTH 15 0
BBX 12 12 2 -1
BITMAP
60e0
f1e0
f9c0
3fc0
1f80
0f80
0f80
1fc0
1de0
3cf0
3860
3000
ENDCHAR
STARTCHAR y
ENCODING 121
SWIDTH 559 0
DWIDTH 13 0
BBX 11 14 2 -4
BITMAP
e0c0
f1e0
fbc0
7f80
3f00
1f00
0e00
0e00
0e00
0e00
0e00
0e00
0e00
0e00
ENDCHAR
STARTCHAR z
ENCODING 122
SWIDTH 524 0
DWIDTH 13 0
BBX 10 10 2 0
BITMAP
ff80
ffc0
ff80
0f00
1e00
3c00
7800
ffc0
ffc0
ffc0
ENDCHAR
STARTCHAR braceleft
ENCODING 123
SWIDTH 408 0
DWIDTH 10 0
BBX 7 20 2 -3
BITMAP
1c
3c
38
38
38
38
38
38
70
f0
f0
f8
78
38
38
1c
1c
1e
0e
04
ENDCHAR
STARTCHAR bar
ENCODING 124
SWIDTH 250 0
DWIDTH 6 0
BBX 3 20 2 -3
BITMAP
e0
e0
e0
e0
e0
e0
e0
e0
e0
e0
e0
e0
e0
e0
e0
e0
e0
e0
e0
e0
ENDCHAR
STARTCHAR braceright
ENCODING 125
SWIDTH 408 0
DWIDTH 10 0
BBX 7 20 2 -3
BITMAP
f0
70
38
38
38
38
38
38
3c
1e
1e
3c
3c
78
78
70
70
f0
e0
c0
ENDCHAR
STARTCHAR asciitilde
ENCODING 126
SWIDTH 613 0
DWIDTH 15 0
BBX 12 5 2 6
BITMAP
1800
7e60
fff0
efe0
03c0
ENDCHAR
STARTCHAR exclamdown
ENCODING 161
SWIDTH 258 0
DWIDTH 6 0
BBX 4 18 4 -6
BITMAP
70
f0
e0
00
e0
e0
e0
e0
e0
e0
e0
e0
e0
e0
e0
e0
e0
e0
ENDCHAR
STARTCHAR cent
ENCODING 162
SWIDTH 474 0
DWIDTH 11 0
BBX 11 13 2 0
BITMAP
0e00
0e00
1f80
3fc0
78c0
f000
e000
f000
78e0
3fc0
1f80
0e00
0e00
ENDCHAR
STARTCHAR sterling
ENCODING 163
SWIDTH 750 0
DWIDTH 18 0
BBX 14 16 2 0
BITMAP
07f0
0ff8
1ff8
1e18
1c00
1c00
1c00
7f80
ff80
ff00
1c00
1c00
7e00
7ffc
7ffc
67f8
ENDCHAR
STARTCHAR currency
ENCODING 164
SWIDTH 750 0
DWIDTH 18 0
BBX 8 8 5 6
BITMAP
c3
ff
fe
66
7e
3f
73
60
ENDCHAR
STARTCHAR yen
ENCODING 165
SWIDTH 750 0
DWIDTH 18 0
BBX 13 15 3 0
BITMAP
e030
f070
7060
38e0
39c0
1dc0
0f80
3ff0
3ff8
0700
3ff0
3ff0
0700
0700
0f80
ENDCHAR
STARTCHAR brokenbar
ENCODING 166
SWIDTH 250 0
DWIDTH 6 0
BBX 3 20 6 -3
BITMAP
e0
e0
e0
e0
e0
e0
e0
e0
c0
00
00
e0
e0
e0
e0
e0
e0
e0
e0
e0
ENDCHAR
STARTCHAR section
ENCODING 167
SWIDTH 750 0
DWIDTH 18 0
BBX 12 21 4 -5
BITMAP
3f80
7fc0
f0e0
e060
e000
7c00
7f00
ffc0
e3e0
e0e0
e070
7070
3c70
1ef0
0fe0
03e0
0070
6070
70f0
3fe0
1fc0
ENDCHAR
STARTCHAR dieresis
ENCODING 168
SWIDTH 750 0
DWIDTH 18 0
BBX 7 6 6 9
BITMAP
c6
ee
ee
ee
ee
ee
ENDCHAR
STARTCHAR copyright
ENCODING 169
SWIDTH 750 0
DWIDTH 18 0
BBX 15 14 2 0
BITMAP
0fc0
1ff0
3c78
701c
73ce
e7e6
ee06
ec06
ee26
67e6
73ce
3c1c
1ff8
07f0
ENDCHAR
STARTCHAR ordfeminine
ENCODING 170
SWIDTH 561 0
DWIDTH 13 0
BBX 10 12 2 3
BITMAP
1f00
3f00
7f00
f700
e700
e700
f700
7f80
7fc0
1dc0
ffc0
ff80
ENDCHAR
STARTCHAR guillemotleft
ENCODING 171
SWIDTH 750 0
DWIDTH 18 0
BBX 13 14 2 -1
BITMAP
0718
0e38
1e70
3ce0
39c0
7380
e780
e700
7380
79c0
38e0
1c70
0e38
0618
ENDCHAR
STARTCHAR logicalnot
ENCODING 172
SWIDTH 750 0
DWIDTH 18 0
BBX 12 6 4 5
BITMAP
7fe0
fff0
fff0
0070
0070
0060
ENDCHAR
STARTCHAR hyphen
ENCODING 173
SWIDTH 608 0
DWIDTH 15 0
BBX 11 3 4 5
BITMAP
ffc0
ffe0
ffe0
ENDCHAR
STARTCHAR registered
ENCODING 174
SWIDTH 750 0
DWIDTH 18 0
BBX 15 14 2 0
BITMAP
0fc0
1ff0
3c38
73dc
77ee
e666
e7e6
e7c6
e6c6
6666
766e
381c
1ff8
0ff0
ENDCHAR
STARTCHAR macron
ENCODING 175
SWIDTH 750 0
DWIDTH 18 0
BBX 8 3 5 12
BITMAP
7e
ff
ff
ENDCHAR
STARTCHAR degree
ENCODING 176
SWIDTH 750 0
DWIDTH 18 0
BBX 5 6 7 8
BITMAP
f0
f8
d8
d8
f8
70
ENDCHAR
STARTCHAR plusminus
ENCODING 177
SWIDTH 630 0
DWIDTH 15 0
BBX 12 15 2 0
BITMAP
0600
0700
0700
0700
c700
fff0
fff0
7ff0
0f00
0e00
0e00
0000
ffe0
fff0
7ff0
ENDCHAR
STARTCHAR twosuperior
ENCODING 178
SWIDTH 750 0
DWIDTH 18 0
BBX 5 8 5 7
BITMAP
70
f8
d8
38
70
e0
f8
f8
ENDCHAR
STARTCHAR threesuperior
ENCODING 179
SWIDTH 750 0
DWIDTH 18 0
BBX 6 8 6 7
BITMAP
70
f8
1c
7c
78
1c
fc
78
ENDCHAR
STARTCHAR acute
ENCODING 180
SWIDTH 750 0
DWIDTH 18 0
BBX 4 6 9 9
BITMAP
30
70
70
e0
e0
c0
ENDCHAR
STARTCHAR mu
ENCODING 181
SWIDTH 563 0
DWIDTH 14 0
BBX 11 15 2 -4
BITMAP
c0e0
e1e0
e1c0
e1c0
e1c0
f1c0
f3c0
fbc0
ffe0
ffe0
eee0
e000
e000
e000
c000
ENDCHAR
STARTCHAR paragraph
ENCODING 182
SWIDTH 750 0
DWIDTH 18 0
BBX 16 19 1 -4
BITMAP
0fff
3fff
7ffc
f738
e738
e738
e738
e738
7738
7f38
3f38
0738
0738
0738
0738
0738
0738
0738
0730
ENDCHAR
STARTCHAR periodcentered
ENCODING 183
SWIDTH 750 0
DWIDTH 18 0
BBX 4 4 7 5
BITMAP
20
70
f0
70
ENDCHAR
STARTCHAR cedilla
ENCODING 184
SWIDTH 750 0
DWIDTH 18 0
BBX 5 5 7 -5
BITMAP
70
70
38
f8
f0
ENDCHAR
STARTCHAR onesuperior
ENCODING 185
SWIDTH 750 0
DWIDTH 18 0
BBX 5 8 4 7
BITMAP
30
78
f8
f8
38
38
38
38
ENDCHAR
STARTCHAR ordmasculine
ENCODING 186
SWIDTH 561 0
DWIDTH 13 0
BBX 10 12 2 3
BITMAP
1f00
3f80
7fc0
f1c0
e1c0
e1c0
f380
7f80
7f00
1c00
ffc0
ff80
ENDCHAR
STARTCHAR guillemotright
ENCODING 187
SWIDTH 750 0
DWIDTH 18 0
BBX 13 14 4 -1
BITMAP
c700
e380
73c0
79e0
3ce0
1e70
0f38
0738
0e70
1cf0
38e0
71c0
e380
c300
ENDCHAR
STARTCHAR onequarter
ENCODING 188
SWIDTH 750 0
DWIDTH 18 0
BBX 13 17 2 -1
BITMAP
3000
7800
f830
f870
38e0
38c0
39c0
3b80
0738
0e78
1cf8
39d8
7398
e3f8
c3f8
0038
0038
ENDCHAR
STARTCHAR onehalf
ENCODING 189
SWIDTH 750 0
DWIDTH 18 0
BBX 13 17 2 -1
BITMAP
3000
7800
f830
f870
38e0
38c0
39c0
3b80
0700
0ef0
1df8
39b8
7038
e070
c0e0
01f8
01f8
ENDCHAR
STARTCHAR threequarters
ENCODING 190
SWIDTH 750 0
DWIDTH 18 0
BBX 13 17 2 -1
BITMAP
f000
f800
1830
7830
7070
38e0
f9c0
f380
0738
0e78
1cf8
39d8
7398
e3f8
c3f8
0038
0038
ENDCHAR
STARTCHAR questiondown
ENCODING 191
SWIDTH 444 0
DWIDTH 11 0
BBX 8 18 8 -6
BITMAP
08
0e
0e
0e
00
08
1e
3c
38
78
f0
e0
f0
70
7c
3f
1f
06
ENDCHAR
STARTCHAR Agrave
ENCODING 192
SWIDTH 803 0
DWIDTH 19 0
BBX 15 18 3 -1
BITMAP
1c00
1f00
0700
0000
0300
0780
0fc0
0fc0
1ee0
1ce0
3c70
38f0
3ff8
7ff8
7fbc
f01c
e01e
c004
ENDCHAR
STARTCHAR Aacute
ENCODING 193
SWIDTH 803 0
DWIDTH 19 0
BBX 15 18 3 -1
BITMAP
00e0
03e0
0380
0000
0300
0780
0fc0
0fc0
1ee0
1ce0
3c70
38f0
3ff8
7ff8
7fbc
f01c
e01e
c004
ENDCHAR
STARTCHAR Acircumflex
ENCODING 194
SWIDTH 803 0
DWIDTH 19 0
BBX 15 18 3 -1
BITMAP
0780
0fc0
1ce0
0000
0300
0780
0fc0
0fc0
1ee0
1ce0
3c70
38f0
3ff8
7ff8
7fbc
f01c
e01e
c004
ENDCHAR
STARTCHAR Atilde
ENCODING 195
SWIDTH 803 0
DWIDTH 19 0
BBX 15 18 3 -1
BITMAP
0f30
1ff0
19e0
0000
0300
0780
0fc0
0fc0
1ee0
1ce0
3c70
38f0
3ff8
7ff8
7fbc
f01c
e01e
c004
ENDCHAR
STARTCHAR Adieresis
ENCODING 196
SWIDTH 803 0
DWIDTH 19 0
BBX 15 18 3 -1
BITMAP
1d80
1dc0
1dc0
0000
0300
0780
0fc0
0fc0
1ee0
1ce0
3c70
38f0
3ff8
7ff8
7fbc
f01c
e01e
c004
ENDCHAR
STARTCHAR Aring
ENCODING 197
SWIDTH 803 0
DWIDTH 19 0
BBX 15 18 3 -1
BITMAP
0780
0fc0
0cc0
0fc0
0780
0780
0fc0
0fc0
1ee0
1ce0
3c70
38f0
3ff8
7ff8
7fbc
f01c
e01e
c004
ENDCHAR
STARTCHAR AE
ENCODING 198
SWIDTH 474 0
DWIDTH 11 0
BBX 16 16 2 0
BITMAP
03ff
07ff
0fff
0ee0
1ce0
1ce0
38e0
38fc
3ffc
7ffc
7fe0
70e0
70e0
f0fc
e0ff
e0ff
ENDCHAR
STARTCHAR Ccedilla
ENCODING 199
SWIDTH 598 0
DWIDTH 14 0
BBX 12 21 2 -5
BITMAP
00c0
07c0
0fc0
1f00
3c00
7800
7000
f000
e000
e000
e000
e000
f800
7c00
3fe0
0ff0
03f0
0380
01c0
07c0
0780
ENDCHAR
STARTCHAR Egrave
ENCODING 200
SWIDTH 474 0
DWIDTH 11 0
BBX 8 17 2 0
BITMAP
70
7c
1c
00
ff
ff
fe
e0
e0
fc
fc
fc
e0
e0
fc
ff
ff
ENDCHAR
STARTCHAR Eacute
ENCODING 201
SWIDTH 474 0
DWIDTH 11 0
BBX 8 17 4 0
BITMAP
0e
3e
38
00
ff
ff
fe
e0
e0
fc
fc
fc
e0
e0
fc
ff
ff
ENDCHAR
STARTCHAR Ecircumflex
ENCODING 202
SWIDTH 474 0
DWIDTH 11 0
BBX 8 17 6 0
BITMAP
3c
7e
e7
00
ff
ff
fe
e0
e0
fc
fc
fc
e0
e0
fc
ff
ff
ENDCHAR
STARTCHAR Edieresis
ENCODING 203
SWIDTH 474 0
DWIDTH 11 0
BBX 8 17 6 0
BITMAP
ec
ee
ee
00
ff
ff
fe
e0
e0
fc
fc
fc
e0
e0
fc
ff
ff
ENDCHAR
STARTCHAR Igrave
ENCODING 204
SWIDTH 242 0
DWIDTH 6 0
BBX 5 18 3 -1
BITMAP
e0
f8
38
00
30
38
38
38
38
38
38
38
38
38
38
38
38
38
ENDCHAR
STARTCHAR Iacute
ENCODING 205
SWIDTH 242 0
DWIDTH 6 0
BBX 5 18 7 -1
BITMAP
38
f8
e0
00
c0
e0
e0
e0
e0
e0
e0
e0
e0
e0
e0
e0
e0
e0
ENDCHAR
STARTCHAR Icircumflex
ENCODING 206
SWIDTH 242 0
DWIDTH 6 0
BBX 8 18 5 -1
BITMAP
3c
7e
e7
00
30
38
38
38
38
38
38
38
38
38
38
38
38
38
ENDCHAR
STARTCHAR Idieresis
ENCODING 207
SWIDTH 242 0
DWIDTH 6 0
BBX 7 18 5 -1
BITMAP
ec
ee
ee
00
30
38
38
38
38
38
38
38
38
38
38
38
38
38
ENDCHAR
STARTCHAR Eth
ENCODING 208
SWIDTH 635 0
DWIDTH 15 0
BBX 15 16 1 0
BITMAP
1f00
1fc0
1ff0
1df8
1c3c
1c1e
1c0e
ff8e
ff8e
7f0e
1c1e
1c7c
1df8
1ff0
1fc0
0e00
ENDCHAR
STARTCHAR Ntilde
ENCODING 209
SWIDTH 781 0
DWIDTH 19 0
BBX 16 18 2 -1
BITMAP
0798
0ff8
0cf0
0000
f007
f807
fc07
fe07
ef07
e787
e3c7
e1e7
e0f7
e0f7
f07f
f03f
701f
6000
ENDCHAR
STARTCHAR Ograve
ENCODING 210
SWIDTH 804 0
DWIDTH 19 0
BBX 17 18 2 -1
BITMAP
070000
07c000
01c000
000000
07f000
1ffc00
7e1e00
780e00
f00e00
e00700
e00700
e00780
e00780
f00780
780f00
3e1f00
1ffc00
07f800
ENDCHAR
STARTCHAR Oacute
ENCODING 211
SWIDTH 804 0
DWIDTH 19 0
BBX 17 18 2 -1
BITMAP
007000
01f000
01c000
000000
07f000
1ffc00
7e1e00
780e00
f00e00
e00700
e00700
e00780
e00780
f00780
780f00
3e1f00
1ffc00
07f800
ENDCHAR
STARTCHAR Ocircumflex
ENCODING 212
SWIDTH 804 0
DWIDTH 19 0
BBX 17 18 2 -1
BITMAP
01e000
03f000
073800
000000
07f000
1ffc00
7e1e00
780e00
f00e00
e00700
e00700
e00780
e00780
f00780
780f00
3e1f00
1ffc00
07f800
ENDCHAR
STARTCHAR Otilde
ENCODING 213
SWIDTH 804 0
DWIDTH 19 0
BBX 17 18 2 -1
BITMAP
03cc00
07fc00
067800
000000
07f000
1ffc00
7e1e00
780e00
f00e00
e00700
e00700
e00780
e00780
f00780
780f00
3e1f00
1ffc00
07f800
ENDCHAR
STARTCHAR Odieresis
ENCODING 214
SWIDTH 804 0
DWIDTH 19 0
BBX 17 18 2 -1
BITMAP
076000
077000
077000
000000
07f000
1ffc00
7e1e00
780e00
f00e00
e00700
e00700
e00780
e00780
f00780
780f00
3e1f00
1ffc00
07f800
ENDCHAR
STARTCHAR multiply
ENCODING 215
SWIDTH 750 0
DWIDTH 18 0
BBX 12 12 3 0
BITMAP
c070
e0e0
73c0
7b80
3f00
1e00
0e00
1f00
3f80
73c0
61e0
e0e0
ENDCHAR
STARTCHAR Oslash
ENCODING 216
SWIDTH 804 0
DWIDTH 19 0
BBX 17 16 2 0
BITMAP
03e300
0ff700
1ffe00
7e1c00
783e00
f07600
e0f700
e1e700
e3c780
e78780
ef0780
7e0700
3c0f00
7ffe00
f7fc00
c7f000
ENDCHAR
STARTCHAR Ugrave
ENCODING 217
SWIDTH 765 0
DWIDTH 18 0
BBX 16 17 2 0
BITMAP
0700
07c0
01c0
0000
e007
e007
e007
e00f
e00e
700e
700e
700e
781c
3c3c
1ff8
1ff8
07e0
ENDCHAR
STARTCHAR Uacute
ENCODING 218
SWIDTH 765 0
DWIDTH 18 0
BBX 16 17 2 0
BITMAP
00e0
03e0
0380
0000
e007
e007
e007
e00f
e00e
700e
700e
700e
781c
3c3c
1ff8
1ff8
07e0
ENDCHAR
STARTCHAR Ucircumflex
ENCODING 219
SWIDTH 765 0
DWIDTH 18 0
BBX 16 17 2 0
BITMAP
03c0
07e0
0e70
0000
e007
e007
e007
e00f
e00e
700e
700e
700e
781c
3c3c
1ff8
1ff8
07e0
ENDCHAR
STARTCHAR Udieresis
ENCODING 220
SWIDTH 765 0
DWIDTH 18 0
BBX 16 17 2 0
BITMAP
0e60
0e70
0e70
0000
e007
e007
e007
e00f
e00e
700e
700e
700e
781c
3c3c
1ff8
1ff8
07e0
ENDCHAR
STARTCHAR Yacute
ENCODING 221
SWIDTH 753 0
DWIDTH 18 0
BBX 15 18 2 -1
BITMAP
0070
01f0
01c0
4000
f00e
fc1e
7e3e
0f78
07f0
03e0
03e0
01c0
01c0
01c0
01c0
01c0
01c0
01c0
ENDCHAR
STARTCHAR Thorn
ENCODING 222
SWIDTH 750 0
DWIDTH 18 0
BBX 12 15 4 0
BITMAP
f800
f000
7f80
7fc0
7fe0
70f0
7070
7070
70f0
7fe0
7fc0
7f80
7000
f800
f800
ENDCHAR
STARTCHAR germandbls
ENCODING 223
SWIDTH 750 0
DWIDTH 18 0
BBX 13 16 2 0
BITMAP
1f80
3fc0
78e0
70e0
71c0
7380
77c0
70e0
7070
7038
7038
7038
7038
7070
f7e0
e3c0
ENDCHAR
STARTCHAR agrave
ENCODING 224
SWIDTH 561 0
DWIDTH 13 0
BBX 11 14 2 0
BITMAP
3800
3e00
0e00
0000
1f00
3f00
7f00
f700
e700
e700
f700
7fc0
7fe0
1ce0
ENDCHAR
STARTCHAR aacute
ENCODING 225
SWIDTH 561 0
DWIDTH 13 0
BBX 11 14 3 0
BITMAP
0380
0f80
0e00
0000
1f00
3f80
7f80
f380
e380
e380
f780
7fc0
7fe0
1ce0
ENDCHAR
STARTCHAR acircumflex
ENCODING 226
SWIDTH 561 0
DWIDTH 13 0
BBX 11 14 3 0
BITMAP
1e00
3f00
7380
0000
1f00
3f80
7f80
f380
e380
e380
f780
7fc0
7fe0
1ce0
ENDCHAR
STARTCHAR atilde
ENCODING 227
SWIDTH 561 0
DWIDTH 13 0
BBX 11 14 3 0
BITMAP
3cc0
7fc0
6780
0000
1f00
3f80
7f80
f380
e380
e380
f780
7fc0
7fe0
1ce0
ENDCHAR
STARTCHAR adieresis
ENCODING 228
SWIDTH 561 0
DWIDTH 13 0
BBX 11 14 3 0
BITMAP
3b00
3b80
3b80
0000
1f00
3f80
7f80
f380
e380
e380
f780
7fc0
7fe0
1ce0
ENDCHAR
STARTCHAR aring
ENCODING 229
SWIDTH 561 0
DWIDTH 13 0
BBX 11 15 5 0
BITMAP
1e00
3f00
3300
3f00
1e00
1e00
3f80
7f80
f380
e380
e380
f780
7fc0
7fe0
1ce0
ENDCHAR
STARTCHAR ae
ENCODING 230
SWIDTH 750 0
DWIDTH 18 0
BBX 16 12 2 0
BITMAP
3c3c
7e7e
eff7
03c3
3fc3
7fff
e7ff
e380
e3c0
f7e7
7ffe
3e7c
ENDCHAR
STARTCHAR ccedilla
ENCODING 231
SWIDTH 474 0
DWIDTH 11 0
BBX 11 17 2 -5
BITMAP
03c0
0fe0
1fe0
3c00
7800
f000
e000
e000
f000
fc00
3fe0
1fc0
0380
0380
01c0
07c0
0780
ENDCHAR
STARTCHAR egrave
ENCODING 232
SWIDTH 537 0
DWIDTH 13 0
BBX 10 14 2 0
BITMAP
3800
3e00
0e00
0000
1e00
3f80
7fc0
f0c0
ffc0
ff80
f000
7fc0
3fc0
0fc0
ENDCHAR
STARTCHAR eacute
ENCODING 233
SWIDTH 537 0
DWIDTH 13 0
BBX 10 14 3 0
BITMAP
0700
1f00
1c00
0000
1e00
3f80
7fc0
f0c0
ffc0
ff80
f000
7fc0
3fc0
0fc0
ENDCHAR
STARTCHAR ecircumflex
ENCODING 234
SWIDTH 537 0
DWIDTH 13 0
BBX 10 14 5 0
BITMAP
0f00
1f80
39c0
0000
0f00
3f80
7fc0
f0c0
ffc0
ff80
f000
7fc0
3fc0
0fc0
ENDCHAR
STARTCHAR edieresis
ENCODING 235
SWIDTH 537 0
DWIDTH 13 0
BBX 10 14 2 0
BITMAP
3b00
3b80
3b80
0000
0f00
3f80
7fc0
f0c0
ffc0
ff80
f000
7fc0
3fc0
0fc0
ENDCHAR
STARTCHAR igrave
ENCODING 236
SWIDTH 248 0
DWIDTH 6 0
BBX 5 13 4 0
BITMAP
e0
f8
38
00
38
38
38
38
38
38
38
38
38
ENDCHAR
STARTCHAR iacute
ENCODING 237
SWIDTH 248 0
DWIDTH 6 0
BBX 5 13 8 0
BITMAP
38
f8
e0
00
e0
e0
e0
e0
e0
e0
e0
e0
e0
ENDCHAR
STARTCHAR icircumflex
ENCODING 238
SWIDTH 248 0
DWIDTH 6 0
BBX 8 13 6 0
BITMAP
3c
7e
e7
00
38
38
38
38
38
38
38
38
38
ENDCHAR
STARTCHAR idieresis
ENCODING 239
SWIDTH 248 0
DWIDTH 6 0
BBX 7 13 6 0
BITMAP
ec
ee
ee
00
38
38
38
38
38
38
38
38
38
ENDCHAR
STARTCHAR eth
ENCODING 240
SWIDTH 546 0
DWIDTH 13 0
BBX 10 17 2 0
BITMAP
7380
7f80
3f00
7f00
7380
0380
0f80
3fc0
7fc0
f9c0
e1c0
e1c0
e1c0
f3c0
7f80
3f00
1e00
ENDCHAR
STARTCHAR ntilde
ENCODING 241
SWIDTH 501 0
DWIDTH 12 0
BBX 9 14 2 0
BITMAP
7980
ff80
cf00
0000
fe00
ff00
ff00
f780
f380
7380
7380
7380
7380
6380
ENDCHAR
STARTCHAR ograve
ENCODING 242
SWIDTH 546 0
DWIDTH 13 0
BBX 10 15 2 0
BITMAP
3800
3e00
0e00
0000
0f00
3f80
7fc0
f9c0
e1c0
e1c0
e1c0
f3c0
7f80
3f00
1e00
ENDCHAR
STARTCHAR oacute
ENCODING 243
SWIDTH 546 0
DWIDTH 13 0
BBX 10 15 2 0
BITMAP
0380
0f80
0e00
0000
0f00
3f80
7fc0
f9c0
e1c0
e1c0
e1c0
f3c0
7f80
3f00
1e00
ENDCHAR
STARTCHAR ocircumflex
ENCODING 244
SWIDTH 546 0
DWIDTH 13 0
BBX 10 15 2 0
BITMAP
1e00
3f00
7380
0000
0f00
3f80
7fc0
f9c0
e1c0
e1c0
e1c0
f3c0
7f80
3f00
1e00
ENDCHAR
STARTCHAR otilde
ENCODING 245
SWIDTH 546 0
DWIDTH 13 0
BBX 10 15 2 0
BITMAP
3cc0
7fc0
6780
0000
0f00
3f80
7fc0
f9c0
e1c0
e1c0
e1c0
f3c0
7f80
3f00
1e00
ENDCHAR
STARTCHAR odieresis
ENCODING 246
SWIDTH 546 0
DWIDTH 13 0
BBX 10 15 2 0
BITMAP
3980
3b80
3b80
0000
0f00
3f80
7fc0
f9c0
e1c0
e1c0
e1c0
f3c0
7f80
3f00
1e00
ENDCHAR
STARTCHAR divide
ENCODING 247
SWIDTH 608 0
DWIDTH 15 0
BBX 12 13 2 0
BITMAP
0600
0700
0700
0000
0000
ffe0
fff0
fff0
0000
0000
0e00
0e00
0600
ENDCHAR
STARTCHAR oslash
ENCODING 248
SWIDTH 546 0
DWIDTH 13 0
BBX 10 12 2 0
BITMAP
00c0
0fc0
3f80
7fc0
fbc0
e7c0
eec0
fdc0
fbc0
7f80
ff00
de00
ENDCHAR
STARTCHAR ugrave
ENCODING 249
SWIDTH 563 0
DWIDTH 14 0
BBX 11 15 2 0
BITMAP
3800
3e00
0e00
0000
c0e0
e1e0
e1c0
e1c0
e1c0
e1c0
e1c0
f380
7f80
3f00
0e00
ENDCHAR
STARTCHAR uacute
ENCODING 250
SWIDTH 563 0
DWIDTH 14 0
BBX 11 15 2 0
BITMAP
0700
1f00
1c00
0000
c0e0
e1e0
e1c0
e1c0
e1c0
e1c0
e1c0
f380
7f80
3f00
0e00
ENDCHAR
STARTCHAR ucircumflex
ENCODING 251
SWIDTH 563 0
DWIDTH 14 0
BBX 11 15 2 0
BITMAP
1e00
3f00
7380
0000
c0e0
e1e0
e1c0
e1c0
e1c0
e1c0
e1c0
f380
7f80
3f00
0e00
ENDCHAR
STARTCHAR udieresis
ENCODING 252
SWIDTH 563 0
DWIDTH 14 0
BBX 11 15 2 0
BITMAP
3b00
3b80
3b80
0000
c0e0
e1e0
e1c0
e1c0
e1c0
e1c0
e1c0
f380
7f80
3f00
0e00
ENDCHAR
STARTCHAR yacute
ENCODING 253
SWIDTH 559 0
DWIDTH 13 0
BBX 11 18 2 -4
BITMAP
0380
0f80
0e00
0000
e0c0
f1e0
fbc0
7f80
3f00
1f00
0e00
0e00
0e00
0e00
0e00
0e00
0e00
0e00
ENDCHAR
STARTCHAR thorn
ENCODING 254
SWIDTH 750 0
DWIDTH 18 0
BBX 14 19 3 -4
BITMAP
f800
f800
f800
3fc0
3ff0
3ff8
383c
381c
381c
383c
3878
3ff8
3fe0
3f80
3800
3800
7800
7c00
7c00
ENDCHAR
STARTCHAR ydieresis
ENCODING 255
SWIDTH 559 0
DWIDTH 13 0
BBX 11 18 2 -4
BITMAP
3b00
3b80
3b80
0000
e0c0
f1e0
fbc0
7f80
3f00
1f00
0e00
0e00
0e00
0e00
0e00
0e00
0e00
0e00
ENDCHAR
ENDFONT
